<svg width="10" height="15" viewBox="0 0 10 15" fill="none" xmlns="http://www.w3.org/2000/svg">
<path fill-rule="evenodd" clip-rule="evenodd" d="M5.00001 0.799988C2.3463 0.799988 0.200012 2.92839 0.200012 5.55999C0.200012 9.12999 5.00001 14.4 5.00001 14.4C5.00001 14.4 9.80001 9.12999 9.80001 5.55999C9.80001 2.92839 7.65373 0.799988 5.00001 0.799988ZM1.57144 5.55999C1.57144 3.68319 3.10744 2.15999 5.00001 2.15999C6.89258 2.15999 8.42858 3.68319 8.42858 5.55999C8.42858 7.51839 6.45373 10.4492 5.00001 12.2784C3.57373 10.4628 1.57144 7.49799 1.57144 5.55999ZM6.7143 5.55999C6.7143 6.49887 5.94679 7.25999 5.00001 7.25999C4.05324 7.25999 3.28573 6.49887 3.28573 5.55999C3.28573 4.6211 4.05324 3.85999 5.00001 3.85999C5.94679 3.85999 6.7143 4.6211 6.7143 5.55999Z" fill="#4B7192"/>
</svg>
