<svg width="14" height="10" viewBox="0 0 14 10" fill="none" xmlns="http://www.w3.org/2000/svg">
<path fill-rule="evenodd" clip-rule="evenodd" d="M5.00001 4.99998C6.28668 4.99998 7.33334 3.95331 7.33334 2.66665C7.33334 1.37998 6.28668 0.333313 5.00001 0.333313C3.71334 0.333313 2.66668 1.37998 2.66668 2.66665C2.66668 3.95331 3.71334 4.99998 5.00001 4.99998ZM0.333344 8.49998C0.333344 6.94665 3.44001 6.16665 5.00001 6.16665C6.56001 6.16665 9.66668 6.94665 9.66668 8.49998V9.66665H0.333344V8.49998ZM5.00001 7.49998C3.80668 7.49998 2.45334 7.94665 1.89334 8.33331H8.10668C7.54668 7.94665 6.19334 7.49998 5.00001 7.49998ZM6.00001 2.66665C6.00001 2.11331 5.55334 1.66665 5.00001 1.66665C4.44668 1.66665 4.00001 2.11331 4.00001 2.66665C4.00001 3.21998 4.44668 3.66665 5.00001 3.66665C5.55334 3.66665 6.00001 3.21998 6.00001 2.66665ZM9.69334 6.20665C10.4667 6.76665 11 7.51331 11 8.49998V9.66665H13.6667V8.49998C13.6667 7.15331 11.3333 6.38665 9.69334 6.20665ZM11.3333 2.66665C11.3333 3.95331 10.2867 4.99998 9.00001 4.99998C8.64001 4.99998 8.30668 4.91331 8.00001 4.76665C8.42001 4.17331 8.66668 3.44665 8.66668 2.66665C8.66668 1.88665 8.42001 1.15998 8.00001 0.566646C8.30668 0.41998 8.64001 0.333313 9.00001 0.333313C10.2867 0.333313 11.3333 1.37998 11.3333 2.66665Z" fill="#4B7192"/>
</svg>
